<svg version="1.1" xmlns="http://www.w3.org/2000/svg" xmlns="http://www.w3.org/1999/xlink" viewBox="0 0 512 512">
	<g>
		<g>
			<g>
				<path d="M256,0C114.844,0,0,114.844,0,256s114.844,256,256,256s256-114.844,256-256S397.156,0,256,0z M256,490.667
					C126.604,490.667,21.333,385.396,21.333,256S126.604,21.333,256,21.333S490.667,126.604,490.667,256S385.396,490.667,256,490.667
					z"/>
				<path d="M266.667,64c0-5.896-4.771-10.667-10.667-10.667c-53.563,0-104.083,20.708-142.25,58.313
					c-4.198,4.125-4.24,10.885-0.104,15.083c2.083,2.115,4.833,3.177,7.594,3.177c2.708,0,5.406-1.021,7.49-3.073
					C162.875,93.198,208.073,74.667,256,74.667C261.896,74.667,266.667,69.896,266.667,64z"/>
				<path d="M384.219,384.219c-34.24,34.25-79.781,53.115-128.219,53.115c-5.896,0-10.667,4.771-10.667,10.667
					c0,5.896,4.771,10.667,10.667,10.667c54.135,0,105.031-21.083,143.302-59.365c4.167-4.167,4.167-10.917,0-15.083
					C395.135,380.052,388.385,380.052,384.219,384.219z"/>
				<path d="M256,373.333c-5.896,0-10.667,4.771-10.667,10.667c0,5.896,4.771,10.667,10.667,10.667
					c37.042,0,71.865-14.427,98.052-40.615c4.167-4.167,4.167-10.917,0-15.083c-4.167-4.167-10.917-4.167-15.083,0
					C316.802,361.125,287.344,373.333,256,373.333z"/>
				<path d="M256,138.667c5.896,0,10.667-4.771,10.667-10.667s-4.771-10.667-10.667-10.667c-37.042,0-71.865,14.427-98.052,40.615
					c-4.167,4.167-4.167,10.917,0,15.083c2.083,2.083,4.813,3.125,7.542,3.125c2.729,0,5.458-1.042,7.542-3.125
					C195.198,150.875,224.656,138.667,256,138.667z"/>
				<path d="M341.333,256c0-47.052-38.281-85.333-85.333-85.333S170.667,208.948,170.667,256s38.281,85.333,85.333,85.333
					S341.333,303.052,341.333,256z M192,256c0-35.292,28.708-64,64-64s64,28.708,64,64s-28.708,64-64,64S192,291.292,192,256z"/>
				<circle cx="256" cy="256" r="21.333"/>
			</g>
		</g>
	</g>
</svg>
